<?xml version="1.0" encoding="UTF-8"?>
<!DOCTYPE svg PUBLIC "-//W3C//DTD SVG 1.1//EN" "http://www.w3.org/Graphics/SVG/1.1/DTD/svg11.dtd">
<!-- Creator: CorelDRAW 2019 (64-Bit) -->
<svg xmlns="http://www.w3.org/2000/svg" xml:space="preserve" width="3280px" height="1080px" version="1.1" style="shape-rendering:geometricPrecision; text-rendering:geometricPrecision; image-rendering:optimizeQuality; fill-rule:evenodd; clip-rule:evenodd"
viewBox="0 0 3280 1079.87"
 xmlns:xlink="http://www.w3.org/1999/xlink"
 xmlns:xodm="http://www.corel.com/coreldraw/odm/2003">
 <defs>
  <style type="text/css">
   <![CDATA[
    .fil0 {fill:#EE4E2C;fill-rule:nonzero}
   ]]>
  </style>
 </defs>
 <g id="Layer_x0020_1">
  <metadata id="CorelCorpID_0Corel-Layer"/>
  <g id="_1702393006976">
   <path class="fil0" d="M878.12 289.06l-219.37 0c-24.65,-219.79 -130.13,-292.91 -214.24,-288.9 -94.6,4.72 -190.21,105.37 -194.02,288.9l-219.68 0c-17.04,0 -30.81,13.76 -30.81,30.81l40.77 619.1c0,17.05 45.71,95.2 117.6,94.69l595.68 0c104.35,-16.23 117.5,-103.63 117.5,-120.67l37.39 -593.12c0,-17.05 -13.77,-30.81 -30.82,-30.81zm-431.05 -237.66l0 0c61.11,-2.87 138.44,57.72 159.91,237.66l-305.13 0c3.49,-149.85 76.51,-234.17 145.22,-237.66zm62.04 851.21l0 0c-71.18,13.66 -162.69,-10.06 -212.5,-63.57 -22.49,-24.14 13.76,-60.6 36.36,-36.26 33.48,36.05 93.15,52.9 141.83,51.77 62.04,-1.34 117.29,-57.82 82.06,-120.88 -48.78,-87.3 -169.05,-62.86 -230.88,-131.46 -50.01,-55.36 -26.29,-142.45 32.46,-181.07 61.21,-40.26 166.89,-38.72 217.22,19 21.67,24.75 -14.59,61.21 -36.36,36.25 -40.67,-46.63 -136.7,-40.26 -173.36,7.7 -52.17,68.51 25.88,105.38 80.41,121.92 74.98,22.69 158.17,64.18 171.83,150.15 10.89,69.22 -42.73,133.61 -109.07,146.45z"/>
   <path class="fil0" d="M2379.69 593.46c-48.11,0 -91.42,20.47 -121.09,52.93l0 -37.65c0,-34.05 -54.55,-34.16 -54.55,0l0 445.48c0,34.15 54.55,34.26 54.55,0l0 -198.35c29.78,32.46 72.98,52.83 121.09,52.83 89.34,0 161.99,-70.64 161.99,-157.62 0,-86.87 -72.65,-157.62 -161.99,-157.62zm0 258.28l0 0c-57.17,0 -103.53,-45.19 -103.53,-100.66 0,-49.96 37.64,-91.64 86.95,-99.39 0.21,0 0.54,-0.1 0.87,-0.1 5.13,-0.75 10.36,-1.17 15.71,-1.17 42.21,0 78.65,24.71 94.69,60.14 0,0.11 0.11,0.32 0.11,0.42 5.56,12.31 8.62,25.89 8.62,40.1 0,55.47 -46.37,100.66 -103.42,100.66zm-402.32 56.98c-89.39,0 -162.11,-70.71 -162.11,-157.62 0,-86.91 72.72,-157.62 162.11,-157.62 89.39,0 162.1,70.71 162.1,157.62 0,86.91 -72.71,157.62 -162.1,157.62zm0 -258.27l0 0c-57.08,0 -103.52,45.15 -103.52,100.65 0,55.49 46.44,100.65 103.52,100.65 57.07,0 103.51,-45.16 103.51,-100.65 0,-55.5 -46.44,-100.65 -103.51,-100.65zm1302.63 97.53c-1.31,-72.45 -39.49,-137.89 -118.48,-152.42 -68.07,-12.51 -147.59,22.38 -176.61,84.32 -30.11,64.39 -17.46,152.74 41.89,197.61 64.25,48.47 164.51,33.52 230.4,-2.34 30.65,-16.65 3.16,-62.47 -27.6,-45.82 -41.78,22.81 -96.33,33.94 -143.13,18.78 -35.02,-11.35 -54.65,-40.73 -60.54,-73.61l226.79 0c14.51,0 27.5,-12.2 27.28,-26.52zm-252.11 -26.52l0 0c0.44,-2.01 0.98,-3.92 1.53,-5.83 13.09,-43.17 57.71,-68.2 102.87,-69.37 51.93,-1.38 81.05,33.41 90.11,75.2l-194.51 0zm-110.94 26.97c-1.3,-72.45 -39.49,-137.89 -118.47,-152.42 -68.07,-12.52 -147.6,22.38 -176.61,84.32 -30.11,64.39 -17.46,152.74 41.88,197.61 64.26,48.47 164.52,33.51 230.4,-2.34 30.66,-16.65 3.17,-62.47 -27.6,-45.82 -41.78,22.81 -96.32,33.94 -143.12,18.77 -35.02,-11.34 -54.66,-40.72 -60.55,-73.6l226.8 0c14.51,0 27.49,-12.2 27.27,-26.52zm-252.1 -26.52l0 0c0.43,-2.02 0.98,-3.92 1.52,-5.83 13.1,-43.17 57.71,-68.21 102.87,-69.37 51.93,-1.38 81.06,33.41 90.11,75.2l-194.5 0zm-913.52 -24.57l0 184.15c0,34.72 -54.54,34.72 -54.54,0l0 -180.55c-1.86,-35.71 -32.28,-52.09 -33.26,-52.52 -38.82,-16.88 -109.32,-9.14 -151.32,44.22l0 188.85c0,34.72 -54.55,34.72 -54.55,0l0 -473c0,-34.71 54.55,-34.6 54.55,0l0 212.46c66.87,-44.73 151.93,-39.74 191.89,-12.33 0,0 48.05,26.29 47.23,88.72zm-383.12 -267.1c-53.48,-59.08 -165.66,-60.66 -230.76,-19.41 -62.32,39.48 -87.54,128.69 -34.48,185.37 65.73,70.22 193.43,45.18 245.26,134.51 37.46,64.57 -21.23,122.38 -87.13,123.79 -51.68,1.1 -115.08,-16.16 -150.68,-53.07 -23.94,-24.84 -62.45,12.39 -38.57,37.16 52.83,54.79 150.12,79.07 225.63,65.03 70.52,-13.11 127.44,-79.08 115.84,-149.91 -14.4,-87.96 -102.78,-130.45 -182.44,-153.65 -57.99,-16.89 -140.87,-54.69 -85.39,-124.74 38.94,-49.18 140.91,-55.68 184.16,-7.92 23.12,25.54 61.56,-11.77 38.56,-37.16z"/>
  </g>
 </g>
</svg>
