<?xml version="1.0" encoding="UTF-8"?>
<!DOCTYPE svg PUBLIC "-//W3C//DTD SVG 1.1//EN" "http://www.w3.org/Graphics/SVG/1.1/DTD/svg11.dtd">
<!-- Creator: CorelDRAW X5 -->
<svg xmlns="http://www.w3.org/2000/svg" xml:space="preserve" width="210mm" height="80.88mm" style="shape-rendering:geometricPrecision; text-rendering:geometricPrecision; image-rendering:optimizeQuality; fill-rule:evenodd; clip-rule:evenodd"
viewBox="0 0 21000 8088"
 xmlns:xlink="http://www.w3.org/1999/xlink">
 <defs>
  <style type="text/css">
   <![CDATA[
    .fil0 {fill:#009C3D;fill-rule:nonzero}
   ]]>
  </style>
 </defs>
 <g id="__x0023_Layer_x0020_1">
  <metadata id="CorelCorpID_0Corel-Layer"/>
  <path class="fil0" d="M17523 2353l0 -2881 591 0 0 2475c-161,81 -385,235 -591,405zm-1026 866l0 0c181,-217 368,-438 591,-624l0 -3123 -591 0 0 3747zm-6843 2289l0 0c0,770 306,1500 862,2056 556,555 1286,862 2056,862 326,0 661,-70 898,-187l0 -590c-277,116 -611,185 -898,185 -1261,0 -2327,-1065 -2327,-2327l0 -533c0,-1262 1066,-2327 2327,-2327 627,0 1214,240 1650,677 437,437 677,1024 677,1650l0 3451 591 0 0 -3565c-36,-753 -358,-1458 -905,-1985 -548,-529 -1263,-820 -2013,-820 -770,0 -1500,306 -2056,863 -556,556 -862,1287 -862,2056l0 533zm8843 -1414l0 0c266,-266 615,-420 956,-420 729,0 1301,571 1301,1301l0 533c0,729 -572,1301 -1301,1301 -353,0 -694,-194 -961,-545 -237,-310 -390,-730 -414,-1107l-479 584c94,448 328,876 658,1177 341,310 766,482 1196,482 1044,0 1893,-849 1893,-1892l0 -533c0,-494 -201,-966 -563,-1329 -363,-364 -835,-564 -1329,-564 -312,0 -809,112 -1401,645l-2 2c-158,158 -531,531 -757,796 -381,416 -934,1042 -1405,1670l0 923c523,-672 824,-1048 1315,-1615 440,-514 985,-1138 1293,-1408zm-13955 -1114l0 0 0 -699c-534,-287 -1118,-415 -1892,-415 -790,0 -1538,290 -2108,815 -571,527 -886,1220 -886,1951l0 191c0,1525 1224,2766 2728,2766 1224,0 1726,-400 1854,-527l0 -1775 -1998 0 0 591 1445 0 0 889 -5 1c-186,74 -572,229 -1296,229 -574,0 -1111,-224 -1513,-630 -403,-407 -625,-956 -625,-1545l0 -191c0,-1179 1100,-2175 2403,-2175 901,0 1434,147 1892,522zm4305 694l0 0c225,0 415,37 566,111 74,-183 150,-335 259,-518 -161,-115 -544,-184 -825,-184 -1078,0 -1892,814 -1892,1892l0 3451 591 0 0 -3451c0,-766 535,-1301 1301,-1301zm-10217 958l0 0 0 191c0,1025 389,1981 1095,2692 705,710 1650,1100 2660,1100 812,0 1531,-183 2139,-545 500,-298 722,-600 742,-628l0 -3182 -3024 0 0 592 2433 0 0 2407 -2 2c-285,285 -961,763 -2287,763 -864,0 -1664,-329 -2253,-929 -588,-596 -910,-1403 -910,-2272l0 -191c0,-820 370,-1639 1014,-2244 658,-617 1516,-957 2415,-957 839,0 1423,127 1892,412l0 -664c-488,-208 -1072,-301 -1892,-301 -2179,0 -4021,1719 -4021,3754zm15835 3793l0 0 0 -3451c0,-1061 -831,-1892 -1892,-1892 -494,0 -966,200 -1329,564 -362,363 -563,835 -563,1329l0 533c0,1025 867,1892 1892,1892 281,0 664,-69 898,-262l0 -624c-230,185 -564,295 -898,295 -729,0 -1301,-572 -1301,-1301l0 -533c0,-729 572,-1301 1301,-1301 730,0 1301,571 1301,1301l0 3451 591 0zm-5618 -5778l0 0c402,0 749,86 1063,264 147,-184 296,-334 407,-444 -332,-254 -893,-411 -1470,-411 -821,0 -1566,296 -2099,834 -529,534 -820,1274 -820,2085l0 3451 590 0 0 -3451c0,-1370 958,-2327 2328,-2327zm12663 271l0 0c-556,-556 -1286,-863 -2057,-863 -563,0 -1129,209 -1440,417 -643,428 -1172,894 -2125,2124l0 884c808,-1052 1573,-1882 2153,-2338 382,-306 923,-496 1412,-496 1262,0 2327,1066 2327,2327l0 533c0,623 -245,1209 -691,1650 -442,437 -1023,677 -1636,677 -1036,0 -1949,-711 -2197,-1683l-417 505c303,1018 1402,1769 2613,1769 770,0 1500,-307 2057,-862 556,-557 862,-1286 862,-2056l0 -533c0,-769 -306,-1500 -862,-2056z"/>
 </g>
</svg>
